<svg xmlns="http://www.w3.org/2000/svg" viewBox="0 0 1024 1024" width="1024" height="1024">
  <!-- "md" in SF Pro Display Heavy at 480pt, converted to paths -->
  <path d="M20.0 -0.0 L20.0 -255.2 L103.2 -255.2 L103.2 -209.4 L104.9 -209.4 Q112.2 -232.8 131.4 -246.7 Q150.7 -260.7 176.9 -260.7 Q195.1 -260.7 209.5 -254.3 Q223.9 -247.8 233.5 -235.7 Q243.0 -223.6 246.6 -206.1 L248.2 -206.1 Q253.2 -222.6 264.5 -234.8 Q275.8 -247.1 291.8 -253.9 Q307.9 -260.7 327.0 -260.7 Q352.0 -260.7 370.8 -249.7 Q389.6 -238.8 400.2 -219.2 Q410.7 -199.7 410.7 -173.7 L410.7 -0.0 L327.5 -0.0 L327.5 -152.3 Q327.5 -165.7 323.4 -174.7 Q319.4 -183.7 311.4 -188.3 Q303.5 -192.9 291.6 -192.9 Q280.5 -192.9 272.2 -187.8 Q263.9 -182.7 259.5 -173.4 Q255.1 -164.2 255.1 -151.5 L255.1 -0.0 L175.7 -0.0 L175.7 -153.1 Q175.7 -166.1 171.5 -174.9 Q167.4 -183.8 159.5 -188.4 Q151.6 -192.9 140.1 -192.9 Q129.0 -192.9 120.7 -187.7 Q112.3 -182.4 107.8 -173.0 Q103.2 -163.6 103.2 -151.0 L103.2 -0.0 Z M526.6 5.4 Q494.7 5.4 471.9 -10.4 Q449.1 -26.1 437.0 -55.9 Q424.9 -85.6 424.9 -127.6 L424.9 -127.9 Q424.9 -170.1 437.1 -199.8 Q449.2 -229.5 471.9 -245.1 Q494.7 -260.7 526.8 -260.7 Q545.0 -260.7 560.1 -254.6 Q575.1 -248.6 586.3 -237.2 Q597.5 -225.8 603.9 -210.0 L605.6 -210.0 L605.6 -338.2 L688.7 -338.2 L688.7 -0.0 L605.6 -0.0 L605.6 -43.6 L603.9 -43.6 Q597.7 -28.2 586.5 -17.3 Q575.4 -6.4 560.2 -0.5 Q545.0 5.4 526.6 5.4 Z M557.4 -62.3 Q571.9 -62.3 582.8 -70.1 Q593.7 -78.0 599.6 -92.6 Q605.6 -107.3 605.6 -127.4 L605.6 -127.7 Q605.6 -148.0 599.5 -162.7 Q593.4 -177.3 582.7 -185.1 Q571.9 -192.9 557.4 -192.9 Q542.8 -192.9 532.0 -185.2 Q521.3 -177.4 515.4 -162.8 Q509.4 -148.2 509.4 -127.9 L509.4 -127.6 Q509.4 -107.5 515.3 -92.8 Q521.1 -78.2 531.9 -70.2 Q542.8 -62.3 557.4 -62.3 Z"
        transform="translate(157.4, 661.0)" fill="white"/>
  <!-- Accent line -->
  <path d="M242,686 H782 Q787,686 787,691 V691 Q787,696 782,696 H242 Q237,696 237,691 V691 Q237,686 242,686 Z"
        fill="white" opacity="0.6"/>
</svg>
